<svg width="243" height="51" viewBox="0 0 243 51" fill="none" xmlns="http://www.w3.org/2000/svg">
<path d="M1.96 1.6H10.36C11.84 1.6 13.22 1.8 14.5 2.2C15.78 2.6 16.8133 3.26666 17.6 4.2C18.4 5.13333 18.8 6.40667 18.8 8.02C18.8 9.1 18.5933 10.0667 18.18 10.92C17.7667 11.7733 17.24 12.4733 16.6 13.02C15.96 13.5533 15.2867 13.8933 14.58 14.04C15.18 14.1067 15.7933 14.2867 16.42 14.58C17.0467 14.8733 17.6267 15.28 18.16 15.8C18.6933 16.32 19.12 16.9733 19.44 17.76C19.7733 18.5467 19.94 19.4667 19.94 20.52C19.94 21.9867 19.62 23.2867 18.98 24.42C18.3533 25.54 17.42 26.42 16.18 27.06C14.9533 27.6867 13.4267 28 11.6 28H1.96V1.6ZM6.96 23.96H10.58C11.5933 23.96 12.4 23.7933 13 23.46C13.6133 23.1267 14.0533 22.6733 14.32 22.1C14.5867 21.5267 14.72 20.8733 14.72 20.14C14.72 18.9667 14.3467 18.0667 13.6 17.44C12.8533 16.8133 11.7933 16.5 10.42 16.5H6.96V23.96ZM6.96 12.54H10.14C10.9667 12.54 11.6467 12.38 12.18 12.06C12.7267 11.7267 13.14 11.2867 13.42 10.74C13.7 10.18 13.84 9.57333 13.84 8.92C13.84 7.66666 13.4733 6.80666 12.74 6.34C12.02 5.87333 11.04 5.64 9.8 5.64H6.96V12.54ZM47.9131 0.819998L49.7531 2.48L23.8931 29.16L22.0331 27.48L47.9131 0.819998ZM27.9931 14.78C27.9931 16.46 28.3398 17.98 29.0331 19.34C29.7398 20.7 30.7065 21.78 31.9331 22.58C33.1598 23.3667 34.5798 23.76 36.1931 23.76C37.8065 23.76 39.2265 23.3667 40.4531 22.58C41.6931 21.78 42.6598 20.7 43.3531 19.34C44.0465 17.98 44.3931 16.46 44.3931 14.78C44.3931 13.1 44.0465 11.5867 43.3531 10.24C42.6598 8.88 41.6931 7.8 40.4531 7C39.2265 6.2 37.8065 5.8 36.1931 5.8C34.5798 5.8 33.1598 6.2 31.9331 7C30.7065 7.8 29.7398 8.88 29.0331 10.24C28.3398 11.5867 27.9931 13.1 27.9931 14.78ZM22.7931 14.78C22.7931 12.86 23.1265 11.0733 23.7931 9.42C24.4731 7.75333 25.4198 6.3 26.6331 5.06C27.8465 3.82 29.2665 2.85333 30.8931 2.16C32.5331 1.46666 34.2998 1.12 36.1931 1.12C38.1131 1.12 39.8865 1.46666 41.5131 2.16C43.1398 2.85333 44.5531 3.82 45.7531 5.06C46.9665 6.3 47.9065 7.75333 48.5731 9.42C49.2398 11.0733 49.5731 12.86 49.5731 14.78C49.5731 16.7133 49.2465 18.5133 48.5931 20.18C47.9398 21.8333 47.0131 23.2867 45.8131 24.54C44.6131 25.78 43.1998 26.7467 41.5731 27.44C39.9465 28.1333 38.1531 28.48 36.1931 28.48C34.2065 28.48 32.3931 28.1333 30.7531 27.44C29.1265 26.7467 27.7131 25.78 26.5131 24.54C25.3265 23.2867 24.4065 21.8333 23.7531 20.18C23.1131 18.5133 22.7931 16.7133 22.7931 14.78ZM52.6203 1.6H62.7803C64.2736 1.6 65.6136 1.91333 66.8003 2.54C67.987 3.15333 68.927 4.05333 69.6203 5.24C70.327 6.41333 70.6803 7.83333 70.6803 9.5C70.6803 11.1533 70.3736 12.5133 69.7603 13.58C69.147 14.6333 68.407 15.4267 67.5403 15.96C66.687 16.4933 65.8936 16.8 65.1603 16.88L71.6403 28H66.0003L60.1403 17.26H57.6003V28H52.6203V1.6ZM57.6003 13.74H61.0003C62.267 13.74 63.3403 13.4267 64.2203 12.8C65.1136 12.1733 65.5603 11.12 65.5603 9.64C65.5603 8.16 65.1203 7.12 64.2403 6.52C63.3603 5.90667 62.2936 5.6 61.0403 5.6H57.6003V13.74ZM80.4263 6.22L80.7663 6.28V28H75.7863V1.6H82.6663L94.5063 23.28L94.1663 23.36V1.6H99.1463V28H92.2263L80.4263 6.22ZM103.989 1.6H120.369V6.02H108.949V12.62H120.209V16.9H108.949V23.58H120.369V28H103.989V1.6ZM125.319 1.6H133.719C135.199 1.6 136.579 1.8 137.859 2.2C139.139 2.6 140.173 3.26666 140.959 4.2C141.759 5.13333 142.159 6.40667 142.159 8.02C142.159 9.1 141.953 10.0667 141.539 10.92C141.126 11.7733 140.599 12.4733 139.959 13.02C139.319 13.5533 138.646 13.8933 137.939 14.04C138.539 14.1067 139.153 14.2867 139.779 14.58C140.406 14.8733 140.986 15.28 141.519 15.8C142.053 16.32 142.479 16.9733 142.799 17.76C143.133 18.5467 143.299 19.4667 143.299 20.52C143.299 21.9867 142.979 23.2867 142.339 24.42C141.713 25.54 140.779 26.42 139.539 27.06C138.313 27.6867 136.786 28 134.959 28H125.319V1.6ZM130.319 23.96H133.939C134.953 23.96 135.759 23.7933 136.359 23.46C136.973 23.1267 137.413 22.6733 137.679 22.1C137.946 21.5267 138.079 20.8733 138.079 20.14C138.079 18.9667 137.706 18.0667 136.959 17.44C136.213 16.8133 135.153 16.5 133.779 16.5H130.319V23.96ZM130.319 12.54H133.499C134.326 12.54 135.006 12.38 135.539 12.06C136.086 11.7267 136.499 11.2867 136.779 10.74C137.059 10.18 137.199 9.57333 137.199 8.92C137.199 7.66666 136.833 6.80666 136.099 6.34C135.379 5.87333 134.399 5.64 133.159 5.64H130.319V12.54ZM147.433 1.6H152.433V28H147.433V1.6ZM157.546 1.6H172.226V6.02H162.546V12.56H171.526V16.96H162.546V28H157.546V1.6ZM176.374 1.6H191.054V6.02H181.374V12.56H190.354V16.96H181.374V28H176.374V1.6ZM195.122 1.6H211.502V6.02H200.082V12.62H211.342V16.9H200.082V23.58H211.502V28H195.122V1.6ZM221.012 6.22L221.352 6.28V28H216.372V1.6H223.252L235.092 23.28L234.752 23.36V1.6H239.732V28H232.812L221.012 6.22Z" fill="black"/>
<path d="M3.745 37.592C4.28633 37.592 4.75533 37.655 5.152 37.781C5.55333 37.9023 5.87067 38.033 6.104 38.173C6.33733 38.3083 6.47733 38.397 6.524 38.439L5.789 39.636C5.719 39.5753 5.593 39.4913 5.411 39.384C5.23367 39.272 5.01433 39.1717 4.753 39.083C4.49633 38.9943 4.20933 38.95 3.892 38.95C3.416 38.95 3.038 39.0433 2.758 39.23C2.478 39.412 2.338 39.678 2.338 40.028C2.338 40.2613 2.41267 40.4667 2.562 40.644C2.71133 40.8213 2.92367 40.987 3.199 41.141C3.479 41.295 3.81267 41.4513 4.2 41.61C4.52667 41.7453 4.844 41.8993 5.152 42.072C5.46467 42.2447 5.74467 42.4477 5.992 42.681C6.23933 42.9143 6.43533 43.185 6.58 43.493C6.72933 43.801 6.804 44.1557 6.804 44.557C6.804 44.977 6.71767 45.3503 6.545 45.677C6.37233 45.999 6.13433 46.272 5.831 46.496C5.52767 46.7153 5.17767 46.8833 4.781 47C4.389 47.112 3.969 47.168 3.521 47.168C2.933 47.168 2.40333 47.098 1.932 46.958C1.46533 46.8133 1.08733 46.664 0.798 46.51C0.508667 46.3513 0.340667 46.2487 0.294 46.202L1.071 44.949C1.127 44.9957 1.22967 45.0657 1.379 45.159C1.533 45.2477 1.722 45.3433 1.946 45.446C2.17 45.544 2.41733 45.628 2.688 45.698C2.96333 45.7633 3.248 45.796 3.542 45.796C4.10667 45.796 4.53367 45.6747 4.823 45.432C5.11233 45.1847 5.257 44.8673 5.257 44.48C5.257 44.186 5.16367 43.9317 4.977 43.717C4.795 43.4977 4.543 43.2993 4.221 43.122C3.90367 42.9447 3.542 42.7697 3.136 42.597C2.72067 42.415 2.33567 42.2097 1.981 41.981C1.631 41.7523 1.34867 41.4747 1.134 41.148C0.919333 40.8167 0.812 40.4153 0.812 39.944C0.812 39.4727 0.945 39.062 1.211 38.712C1.48167 38.3573 1.83867 38.082 2.282 37.886C2.72533 37.69 3.213 37.592 3.745 37.592ZM9.2552 44.48C9.26454 44.7833 9.33687 45.0563 9.4722 45.299C9.60754 45.5417 9.80587 45.733 10.0672 45.873C10.3332 46.0083 10.6575 46.076 11.0402 46.076C11.3715 46.076 11.6562 46.0317 11.8942 45.943C12.1369 45.8497 12.3375 45.74 12.4962 45.614C12.6549 45.4833 12.7715 45.362 12.8462 45.25L13.5112 46.153C13.3665 46.349 13.1845 46.524 12.9652 46.678C12.7459 46.832 12.4729 46.951 12.1462 47.035C11.8242 47.1237 11.4252 47.168 10.9492 47.168C10.3239 47.168 9.7802 47.0397 9.3182 46.783C8.8562 46.5263 8.49687 46.1647 8.2402 45.698C7.9882 45.2313 7.8622 44.6853 7.8622 44.06C7.8622 43.5 7.97887 42.996 8.2122 42.548C8.44554 42.0953 8.78387 41.7383 9.2272 41.477C9.6752 41.2157 10.2119 41.085 10.8372 41.085C11.4205 41.085 11.9269 41.2017 12.3562 41.435C12.7855 41.6683 13.1169 42.0043 13.3502 42.443C13.5882 42.877 13.7072 43.402 13.7072 44.018C13.7072 44.0553 13.7049 44.1323 13.7002 44.249C13.7002 44.3657 13.6955 44.4427 13.6862 44.48H9.2552ZM12.3072 43.388C12.3025 43.2387 12.2512 43.0683 12.1532 42.877C12.0599 42.6857 11.9082 42.52 11.6982 42.38C11.4882 42.2353 11.2082 42.163 10.8582 42.163C10.4989 42.163 10.2072 42.233 9.9832 42.373C9.7592 42.5083 9.59354 42.6717 9.4862 42.863C9.37887 43.0497 9.31587 43.2247 9.2972 43.388H12.3072ZM22.1748 41.253H23.9318L21.0408 43.99L24.1488 47H22.3638L19.8368 44.529V47H18.3388V37.368H19.8368V43.444L22.1748 41.253ZM27.3831 47.168C26.7811 47.168 26.2445 47.0373 25.7731 46.776C25.3065 46.51 24.9401 46.1507 24.6741 45.698C24.4081 45.2407 24.2751 44.7227 24.2751 44.144C24.2751 43.5653 24.4081 43.045 24.6741 42.583C24.9401 42.121 25.3065 41.757 25.7731 41.491C26.2445 41.2203 26.7811 41.085 27.3831 41.085C27.9851 41.085 28.5171 41.2203 28.9791 41.491C29.4411 41.757 29.8028 42.121 30.0641 42.583C30.3301 43.045 30.4631 43.5653 30.4631 44.144C30.4631 44.7227 30.3301 45.2407 30.0641 45.698C29.8028 46.1507 29.4411 46.51 28.9791 46.776C28.5171 47.0373 27.9851 47.168 27.3831 47.168ZM27.3831 45.908C27.7191 45.908 28.0108 45.831 28.2581 45.677C28.5055 45.523 28.6968 45.313 28.8321 45.047C28.9675 44.781 29.0351 44.4777 29.0351 44.137C29.0351 43.7963 28.9675 43.493 28.8321 43.227C28.6968 42.9563 28.5055 42.7417 28.2581 42.583C28.0108 42.4243 27.7191 42.345 27.3831 42.345C27.0471 42.345 26.7531 42.4243 26.5011 42.583C26.2538 42.7417 26.0601 42.9563 25.9201 43.227C25.7848 43.493 25.7171 43.7963 25.7171 44.137C25.7171 44.4777 25.7848 44.781 25.9201 45.047C26.0601 45.313 26.2538 45.523 26.5011 45.677C26.7531 45.831 27.0471 45.908 27.3831 45.908ZM33.1492 47H31.6582V41.253H33.1492V42.212H33.1142C33.1468 42.0953 33.2355 41.9507 33.3802 41.778C33.5295 41.6007 33.7348 41.442 33.9962 41.302C34.2575 41.1573 34.5725 41.085 34.9412 41.085C35.2072 41.085 35.4452 41.1223 35.6552 41.197C35.8652 41.2717 36.0145 41.3463 36.1032 41.421L35.5012 42.653C35.4405 42.5783 35.3262 42.506 35.1582 42.436C34.9948 42.3613 34.7918 42.324 34.5492 42.324C34.2458 42.324 33.9892 42.4127 33.7792 42.59C33.5738 42.7673 33.4175 42.9797 33.3102 43.227C33.2028 43.4743 33.1492 43.7053 33.1492 43.92V47ZM36.4471 41.253H37.5251V38.894H39.0091V41.253H40.4301V42.513H39.0091V44.97C39.0091 45.278 39.0605 45.509 39.1631 45.663C39.2705 45.817 39.4221 45.894 39.6181 45.894C39.7815 45.894 39.9098 45.8637 40.0031 45.803C40.1011 45.7423 40.1595 45.7003 40.1781 45.677L40.7311 46.762C40.7031 46.79 40.6215 46.8367 40.4861 46.902C40.3508 46.9673 40.1758 47.028 39.9611 47.084C39.7465 47.14 39.5015 47.168 39.2261 47.168C38.7408 47.168 38.3348 47.0233 38.0081 46.734C37.6861 46.4447 37.5251 45.992 37.5251 45.376V42.513H36.4471V41.253ZM41.1976 41.253H42.3036V39.657C42.3036 39.083 42.411 38.6163 42.6256 38.257C42.8403 37.893 43.1133 37.627 43.4446 37.459C43.7806 37.2863 44.126 37.2 44.4806 37.2C44.9146 37.2 45.246 37.2607 45.4746 37.382C45.708 37.4987 45.8503 37.5803 45.9016 37.627L45.3136 38.747C45.2856 38.719 45.2156 38.67 45.1036 38.6C44.9916 38.5253 44.84 38.488 44.6486 38.488C44.5086 38.488 44.3733 38.5207 44.2426 38.586C44.1166 38.6513 44.0093 38.7797 43.9206 38.971C43.832 39.1623 43.7876 39.4423 43.7876 39.811V41.253H45.3626V42.513H43.7876V47H42.3036V42.513H41.1976V41.253ZM46.5106 47V41.253H48.0016V47H46.5106ZM47.2736 39.531C47.0216 39.531 46.8046 39.44 46.6226 39.258C46.4453 39.076 46.3566 38.859 46.3566 38.607C46.3566 38.355 46.4453 38.138 46.6226 37.956C46.8046 37.7693 47.0216 37.676 47.2736 37.676C47.4416 37.676 47.5956 37.7203 47.7356 37.809C47.8803 37.893 47.9946 38.005 48.0786 38.145C48.1673 38.2803 48.2116 38.4343 48.2116 38.607C48.2116 38.859 48.1206 39.076 47.9386 39.258C47.7566 39.44 47.535 39.531 47.2736 39.531ZM51.2737 47H49.7687V37.368H51.2737V47ZM60.1089 41.085C60.5382 41.085 60.9069 41.176 61.2149 41.358C61.5276 41.54 61.7679 41.82 61.9359 42.198C62.1086 42.576 62.1949 43.059 62.1949 43.647V47H60.7179V43.913C60.7179 43.3577 60.6386 42.9353 60.4799 42.646C60.3259 42.3567 60.0342 42.212 59.6049 42.212C59.3716 42.212 59.1522 42.275 58.9469 42.401C58.7416 42.527 58.5759 42.716 58.4499 42.968C58.3286 43.2153 58.2679 43.5303 58.2679 43.913V47H56.8819V43.913C56.8819 43.3577 56.7862 42.9353 56.5949 42.646C56.4082 42.3567 56.1282 42.212 55.7549 42.212C55.5169 42.212 55.2976 42.2727 55.0969 42.394C54.8962 42.5153 54.7352 42.702 54.6139 42.954C54.4926 43.206 54.4319 43.5257 54.4319 43.913V47H52.9479V41.253H54.4319V42.114C54.4832 41.9693 54.5976 41.8177 54.7749 41.659C54.9569 41.5003 55.1832 41.365 55.4539 41.253C55.7246 41.141 56.0209 41.085 56.3429 41.085C56.6929 41.085 56.9822 41.1503 57.2109 41.281C57.4442 41.407 57.6286 41.5657 57.7639 41.757C57.9039 41.9483 58.0066 42.1397 58.0719 42.331C58.1372 42.1397 58.2632 41.9483 58.4499 41.757C58.6412 41.5657 58.8792 41.407 59.1639 41.281C59.4486 41.1503 59.7636 41.085 60.1089 41.085ZM74.5054 41.085C74.9347 41.085 75.3034 41.176 75.6114 41.358C75.924 41.54 76.1644 41.82 76.3324 42.198C76.505 42.576 76.5914 43.059 76.5914 43.647V47H75.1144V43.913C75.1144 43.3577 75.035 42.9353 74.8764 42.646C74.7224 42.3567 74.4307 42.212 74.0014 42.212C73.768 42.212 73.5487 42.275 73.3434 42.401C73.138 42.527 72.9724 42.716 72.8464 42.968C72.725 43.2153 72.6644 43.5303 72.6644 43.913V47H71.2784V43.913C71.2784 43.3577 71.1827 42.9353 70.9914 42.646C70.8047 42.3567 70.5247 42.212 70.1514 42.212C69.9134 42.212 69.694 42.2727 69.4934 42.394C69.2927 42.5153 69.1317 42.702 69.0104 42.954C68.889 43.206 68.8284 43.5257 68.8284 43.913V47H67.3444V41.253H68.8284V42.114C68.8797 41.9693 68.994 41.8177 69.1714 41.659C69.3534 41.5003 69.5797 41.365 69.8504 41.253C70.121 41.141 70.4174 41.085 70.7394 41.085C71.0894 41.085 71.3787 41.1503 71.6074 41.281C71.8407 41.407 72.025 41.5657 72.1604 41.757C72.3004 41.9483 72.403 42.1397 72.4684 42.331C72.5337 42.1397 72.6597 41.9483 72.8464 41.757C73.0377 41.5657 73.2757 41.407 73.5604 41.281C73.845 41.1503 74.16 41.085 74.5054 41.085ZM79.1732 44.48C79.1825 44.7833 79.2548 45.0563 79.3902 45.299C79.5255 45.5417 79.7238 45.733 79.9852 45.873C80.2512 46.0083 80.5755 46.076 80.9582 46.076C81.2895 46.076 81.5742 46.0317 81.8122 45.943C82.0548 45.8497 82.2555 45.74 82.4142 45.614C82.5728 45.4833 82.6895 45.362 82.7642 45.25L83.4292 46.153C83.2845 46.349 83.1025 46.524 82.8832 46.678C82.6638 46.832 82.3908 46.951 82.0642 47.035C81.7422 47.1237 81.3432 47.168 80.8672 47.168C80.2418 47.168 79.6982 47.0397 79.2362 46.783C78.7742 46.5263 78.4148 46.1647 78.1582 45.698C77.9062 45.2313 77.7802 44.6853 77.7802 44.06C77.7802 43.5 77.8968 42.996 78.1302 42.548C78.3635 42.0953 78.7018 41.7383 79.1452 41.477C79.5932 41.2157 80.1298 41.085 80.7552 41.085C81.3385 41.085 81.8448 41.2017 82.2742 41.435C82.7035 41.6683 83.0348 42.0043 83.2682 42.443C83.5062 42.877 83.6252 43.402 83.6252 44.018C83.6252 44.0553 83.6228 44.1323 83.6182 44.249C83.6182 44.3657 83.6135 44.4427 83.6042 44.48H79.1732ZM82.2252 43.388C82.2205 43.2387 82.1692 43.0683 82.0712 42.877C81.9778 42.6857 81.8262 42.52 81.6162 42.38C81.4062 42.2353 81.1262 42.163 80.7762 42.163C80.4168 42.163 80.1252 42.233 79.9012 42.373C79.6772 42.5083 79.5115 42.6717 79.4042 42.863C79.2968 43.0497 79.2338 43.2247 79.2152 43.388H82.2252ZM87.4111 47.168C86.8697 47.168 86.3914 47.0397 85.9761 46.783C85.5607 46.5263 85.2341 46.1693 84.9961 45.712C84.7627 45.2547 84.6461 44.7273 84.6461 44.13C84.6461 43.5327 84.7627 43.0053 84.9961 42.548C85.2341 42.0907 85.5607 41.7337 85.9761 41.477C86.3914 41.2157 86.8697 41.085 87.4111 41.085C87.8124 41.085 88.1694 41.155 88.4821 41.295C88.7947 41.4303 89.0444 41.589 89.2311 41.771C89.4177 41.953 89.5274 42.114 89.5601 42.254V37.368H91.0581V47H89.5811V45.936C89.5157 46.0993 89.3827 46.2767 89.1821 46.468C88.9814 46.6593 88.7271 46.825 88.4191 46.965C88.1157 47.1003 87.7797 47.168 87.4111 47.168ZM87.7961 45.957C88.1227 45.957 88.4191 45.88 88.6851 45.726C88.9511 45.572 89.1634 45.3597 89.3221 45.089C89.4807 44.8137 89.5601 44.494 89.5601 44.13C89.5601 43.766 89.4807 43.4487 89.3221 43.178C89.1634 42.9027 88.9511 42.688 88.6851 42.534C88.4191 42.3753 88.1227 42.296 87.7961 42.296C87.4974 42.296 87.2197 42.373 86.9631 42.527C86.7111 42.6763 86.5081 42.8887 86.3541 43.164C86.2001 43.4393 86.1231 43.7613 86.1231 44.13C86.1231 44.4987 86.2001 44.8207 86.3541 45.096C86.5081 45.3713 86.7111 45.5837 86.9631 45.733C87.2197 45.8823 87.4974 45.957 87.7961 45.957ZM98.4443 47.168C97.9029 47.168 97.4246 47.0397 97.0093 46.783C96.5939 46.5263 96.2673 46.1693 96.0293 45.712C95.7959 45.2547 95.6793 44.7273 95.6793 44.13C95.6793 43.5327 95.7959 43.0053 96.0293 42.548C96.2673 42.0907 96.5939 41.7337 97.0093 41.477C97.4246 41.2157 97.9029 41.085 98.4443 41.085C98.8456 41.085 99.2026 41.155 99.5153 41.295C99.8279 41.4303 100.078 41.589 100.264 41.771C100.451 41.953 100.561 42.114 100.593 42.254V37.368H102.091V47H100.614V45.936C100.549 46.0993 100.416 46.2767 100.215 46.468C100.015 46.6593 99.7603 46.825 99.4523 46.965C99.1489 47.1003 98.8129 47.168 98.4443 47.168ZM98.8293 45.957C99.1559 45.957 99.4523 45.88 99.7183 45.726C99.9843 45.572 100.197 45.3597 100.355 45.089C100.514 44.8137 100.593 44.494 100.593 44.13C100.593 43.766 100.514 43.4487 100.355 43.178C100.197 42.9027 99.9843 42.688 99.7183 42.534C99.4523 42.3753 99.1559 42.296 98.8293 42.296C98.5306 42.296 98.2529 42.373 97.9963 42.527C97.7443 42.6763 97.5413 42.8887 97.3873 43.164C97.2333 43.4393 97.1563 43.7613 97.1563 44.13C97.1563 44.4987 97.2333 44.8207 97.3873 45.096C97.5413 45.3713 97.7443 45.5837 97.9963 45.733C98.2529 45.8823 98.5306 45.957 98.8293 45.957ZM104.439 44.48C104.448 44.7833 104.52 45.0563 104.656 45.299C104.791 45.5417 104.989 45.733 105.251 45.873C105.517 46.0083 105.841 46.076 106.224 46.076C106.555 46.076 106.84 46.0317 107.078 45.943C107.32 45.8497 107.521 45.74 107.68 45.614C107.838 45.4833 107.955 45.362 108.03 45.25L108.695 46.153C108.55 46.349 108.368 46.524 108.149 46.678C107.929 46.832 107.656 46.951 107.33 47.035C107.008 47.1237 106.609 47.168 106.133 47.168C105.507 47.168 104.964 47.0397 104.502 46.783C104.04 46.5263 103.68 46.1647 103.424 45.698C103.172 45.2313 103.046 44.6853 103.046 44.06C103.046 43.5 103.162 42.996 103.396 42.548C103.629 42.0953 103.967 41.7383 104.411 41.477C104.859 41.2157 105.395 41.085 106.021 41.085C106.604 41.085 107.11 41.2017 107.54 41.435C107.969 41.6683 108.3 42.0043 108.534 42.443C108.772 42.877 108.891 43.402 108.891 44.018C108.891 44.0553 108.888 44.1323 108.884 44.249C108.884 44.3657 108.879 44.4427 108.87 44.48H104.439ZM107.491 43.388C107.486 43.2387 107.435 43.0683 107.337 42.877C107.243 42.6857 107.092 42.52 106.882 42.38C106.672 42.2353 106.392 42.163 106.042 42.163C105.682 42.163 105.391 42.233 105.167 42.373C104.943 42.5083 104.777 42.6717 104.67 42.863C104.562 43.0497 104.499 43.2247 104.481 43.388H107.491ZM116.259 45.663L118.079 41.253H119.57L115.664 49.912H114.152L115.468 47L113.088 41.253H114.6L116.259 45.663ZM123.841 41.085C124.228 41.085 124.604 41.1643 124.968 41.323C125.332 41.4817 125.631 41.736 125.864 42.086C126.102 42.4313 126.221 42.8817 126.221 43.437V47H124.716V43.71C124.716 43.192 124.592 42.8117 124.345 42.569C124.102 42.3217 123.787 42.198 123.4 42.198C123.143 42.198 122.898 42.2703 122.665 42.415C122.432 42.5597 122.24 42.7557 122.091 43.003C121.946 43.2503 121.874 43.535 121.874 43.857V47H120.376V41.253H121.874V42.219C121.916 42.0603 122.028 41.8947 122.21 41.722C122.397 41.5447 122.632 41.3953 122.917 41.274C123.202 41.148 123.51 41.085 123.841 41.085ZM130.546 50.073C130.108 50.073 129.699 50.0287 129.321 49.94C128.948 49.856 128.614 49.7277 128.32 49.555C128.026 49.387 127.788 49.1793 127.606 48.932L128.537 48.008C128.635 48.1293 128.761 48.2553 128.915 48.386C129.069 48.5213 129.272 48.6333 129.524 48.722C129.776 48.8153 130.096 48.862 130.483 48.862C130.861 48.862 131.183 48.785 131.449 48.631C131.72 48.477 131.925 48.2647 132.065 47.994C132.21 47.728 132.282 47.42 132.282 47.07V46.895H133.752V47.161C133.752 47.7957 133.61 48.3277 133.325 48.757C133.041 49.191 132.656 49.5177 132.17 49.737C131.685 49.961 131.144 50.073 130.546 50.073ZM132.282 47V45.936C132.245 46.048 132.138 46.202 131.96 46.398C131.788 46.594 131.55 46.7713 131.246 46.93C130.948 47.0887 130.593 47.168 130.182 47.168C129.646 47.168 129.163 47.0397 128.733 46.783C128.304 46.5263 127.966 46.1693 127.718 45.712C127.471 45.2547 127.347 44.7273 127.347 44.13C127.347 43.5327 127.471 43.0053 127.718 42.548C127.966 42.0907 128.304 41.7337 128.733 41.477C129.163 41.2157 129.646 41.085 130.182 41.085C130.584 41.085 130.931 41.155 131.225 41.295C131.519 41.435 131.755 41.596 131.932 41.778C132.114 41.96 132.226 42.1187 132.268 42.254V41.253H133.752V47H132.282ZM128.824 44.13C128.824 44.4987 128.906 44.8207 129.069 45.096C129.233 45.3713 129.445 45.5837 129.706 45.733C129.972 45.8823 130.257 45.957 130.56 45.957C130.887 45.957 131.176 45.88 131.428 45.726C131.685 45.572 131.886 45.3597 132.03 45.089C132.18 44.8137 132.254 44.494 132.254 44.13C132.254 43.766 132.18 43.4487 132.03 43.178C131.886 42.9027 131.685 42.688 131.428 42.534C131.176 42.3753 130.887 42.296 130.56 42.296C130.257 42.296 129.972 42.373 129.706 42.527C129.445 42.6763 129.233 42.8887 129.069 43.164C128.906 43.4393 128.824 43.7613 128.824 44.13ZM137.588 41.085C137.91 41.085 138.209 41.1153 138.484 41.176C138.76 41.2367 138.995 41.309 139.191 41.393C139.387 41.477 139.523 41.547 139.597 41.603L139.051 42.527C138.958 42.4477 138.79 42.3567 138.547 42.254C138.309 42.1513 138.041 42.1 137.742 42.1C137.444 42.1 137.192 42.1537 136.986 42.261C136.781 42.3683 136.678 42.5293 136.678 42.744C136.678 42.954 136.786 43.122 137 43.248C137.22 43.374 137.516 43.479 137.889 43.563C138.197 43.633 138.491 43.731 138.771 43.857C139.051 43.9783 139.28 44.1533 139.457 44.382C139.639 44.606 139.73 44.907 139.73 45.285C139.73 45.6443 139.653 45.9453 139.499 46.188C139.35 46.426 139.149 46.6173 138.897 46.762C138.645 46.9067 138.365 47.0093 138.057 47.07C137.754 47.1353 137.448 47.168 137.14 47.168C136.762 47.168 136.424 47.1307 136.125 47.056C135.831 46.9813 135.586 46.895 135.39 46.797C135.194 46.6943 135.054 46.608 134.97 46.538L135.516 45.502C135.638 45.6187 135.836 45.7423 136.111 45.873C136.387 45.999 136.695 46.062 137.035 46.062C137.399 46.062 137.691 45.992 137.91 45.852C138.13 45.712 138.239 45.5253 138.239 45.292C138.239 45.1193 138.186 44.9793 138.078 44.872C137.976 44.7647 137.833 44.6783 137.651 44.613C137.469 44.5477 137.266 44.4893 137.042 44.438C136.832 44.3867 136.62 44.3213 136.405 44.242C136.195 44.158 136.002 44.0507 135.824 43.92C135.647 43.7847 135.505 43.6167 135.397 43.416C135.29 43.2153 135.236 42.9797 135.236 42.709C135.236 42.3637 135.346 42.0697 135.565 41.827C135.785 41.5843 136.074 41.4 136.433 41.274C136.793 41.148 137.178 41.085 137.588 41.085ZM140.476 41.253H141.554V38.894H143.038V41.253H144.459V42.513H143.038V44.97C143.038 45.278 143.09 45.509 143.192 45.663C143.3 45.817 143.451 45.894 143.647 45.894C143.811 45.894 143.939 45.8637 144.032 45.803C144.13 45.7423 144.189 45.7003 144.207 45.677L144.76 46.762C144.732 46.79 144.651 46.8367 144.515 46.902C144.38 46.9673 144.205 47.028 143.99 47.084C143.776 47.14 143.531 47.168 143.255 47.168C142.77 47.168 142.364 47.0233 142.037 46.734C141.715 46.4447 141.554 45.992 141.554 45.376V42.513H140.476V41.253ZM146.767 44.48C146.776 44.7833 146.849 45.0563 146.984 45.299C147.119 45.5417 147.318 45.733 147.579 45.873C147.845 46.0083 148.169 46.076 148.552 46.076C148.883 46.076 149.168 46.0317 149.406 45.943C149.649 45.8497 149.849 45.74 150.008 45.614C150.167 45.4833 150.283 45.362 150.358 45.25L151.023 46.153C150.878 46.349 150.696 46.524 150.477 46.678C150.258 46.832 149.985 46.951 149.658 47.035C149.336 47.1237 148.937 47.168 148.461 47.168C147.836 47.168 147.292 47.0397 146.83 46.783C146.368 46.5263 146.009 46.1647 145.752 45.698C145.5 45.2313 145.374 44.6853 145.374 44.06C145.374 43.5 145.491 42.996 145.724 42.548C145.957 42.0953 146.296 41.7383 146.739 41.477C147.187 41.2157 147.724 41.085 148.349 41.085C148.932 41.085 149.439 41.2017 149.868 41.435C150.297 41.6683 150.629 42.0043 150.862 42.443C151.1 42.877 151.219 43.402 151.219 44.018C151.219 44.0553 151.217 44.1323 151.212 44.249C151.212 44.3657 151.207 44.4427 151.198 44.48H146.767ZM149.819 43.388C149.814 43.2387 149.763 43.0683 149.665 42.877C149.572 42.6857 149.42 42.52 149.21 42.38C149 42.2353 148.72 42.163 148.37 42.163C148.011 42.163 147.719 42.233 147.495 42.373C147.271 42.5083 147.105 42.6717 146.998 42.863C146.891 43.0497 146.828 43.2247 146.809 43.388H149.819Z" fill="black"/>
</svg>
