<svg width="231" height="69" viewBox="0 0 231 69" fill="none" xmlns="http://www.w3.org/2000/svg">
<g filter="url(#filter0_d_142_1774)">
<rect x="4" width="223" height="61" rx="10" fill="#B3C58E"/>
</g>
<path d="M87.688 20H83.422V7.67H87.688C89.584 7.67 90.88 8.15 91.576 9.11C92.272 10.07 92.62 11.576 92.62 13.628C92.62 14.672 92.548 15.56 92.404 16.292C92.272 17.012 92.032 17.666 91.684 18.254C91 19.418 89.668 20 87.688 20ZM90.55 13.628C90.55 12.14 90.364 11.066 89.992 10.406C89.62 9.746 88.852 9.416 87.688 9.416H85.42V18.236H87.688C88.876 18.236 89.668 17.798 90.064 16.922C90.256 16.478 90.382 16.004 90.442 15.5C90.514 14.996 90.55 14.372 90.55 13.628ZM95.2053 11.972C95.8293 11.192 96.8613 10.802 98.3013 10.802C99.7413 10.802 100.767 11.192 101.379 11.972C102.003 12.752 102.315 13.922 102.315 15.482C102.315 17.042 102.015 18.218 101.415 19.01C100.815 19.802 99.7773 20.198 98.3013 20.198C96.8253 20.198 95.7873 19.802 95.1873 19.01C94.5873 18.218 94.2873 17.042 94.2873 15.482C94.2873 13.922 94.5933 12.752 95.2053 11.972ZM96.6813 17.822C96.9573 18.302 97.4973 18.542 98.3013 18.542C99.1053 18.542 99.6453 18.302 99.9213 17.822C100.197 17.342 100.335 16.556 100.335 15.464C100.335 14.372 100.185 13.598 99.8853 13.142C99.5973 12.686 99.0693 12.458 98.3013 12.458C97.5333 12.458 96.9993 12.686 96.6993 13.142C96.4113 13.598 96.2673 14.372 96.2673 15.464C96.2673 16.556 96.4053 17.342 96.6813 17.822ZM103.562 11H105.488L106.91 18.326H107.27L108.98 11.18H110.996L112.706 18.326H113.066L114.47 11H116.414L114.506 20H111.392L109.988 13.826L108.584 20H105.47L103.562 11ZM120.043 20H118.081V11H120.025V11.558C120.901 11.054 121.729 10.802 122.509 10.802C123.709 10.802 124.525 11.144 124.957 11.828C125.401 12.5 125.623 13.616 125.623 15.176V20H123.679V15.23C123.679 14.258 123.571 13.568 123.355 13.16C123.151 12.752 122.725 12.548 122.077 12.548C121.465 12.548 120.877 12.668 120.313 12.908L120.043 13.016V20ZM128.015 20V7.256H129.977V20H128.015ZM132.945 11.972C133.569 11.192 134.601 10.802 136.041 10.802C137.481 10.802 138.507 11.192 139.119 11.972C139.743 12.752 140.055 13.922 140.055 15.482C140.055 17.042 139.755 18.218 139.155 19.01C138.555 19.802 137.517 20.198 136.041 20.198C134.565 20.198 133.527 19.802 132.927 19.01C132.327 18.218 132.027 17.042 132.027 15.482C132.027 13.922 132.333 12.752 132.945 11.972ZM134.421 17.822C134.697 18.302 135.237 18.542 136.041 18.542C136.845 18.542 137.385 18.302 137.661 17.822C137.937 17.342 138.075 16.556 138.075 15.464C138.075 14.372 137.925 13.598 137.625 13.142C137.337 12.686 136.809 12.458 136.041 12.458C135.273 12.458 134.739 12.686 134.439 13.142C134.151 13.598 134.007 14.372 134.007 15.464C134.007 16.556 134.145 17.342 134.421 17.822ZM148.664 13.772V17.876C148.676 18.14 148.742 18.338 148.862 18.47C148.994 18.59 149.192 18.668 149.456 18.704L149.402 20.198C148.37 20.198 147.572 19.976 147.008 19.532C146.048 19.976 145.082 20.198 144.11 20.198C142.322 20.198 141.428 19.244 141.428 17.336C141.428 16.424 141.668 15.764 142.148 15.356C142.64 14.948 143.39 14.702 144.398 14.618L146.72 14.42V13.772C146.72 13.292 146.612 12.956 146.396 12.764C146.192 12.572 145.886 12.476 145.478 12.476C144.71 12.476 143.75 12.524 142.598 12.62L142.022 12.656L141.95 11.27C143.258 10.958 144.458 10.802 145.55 10.802C146.654 10.802 147.446 11.042 147.926 11.522C148.418 11.99 148.664 12.74 148.664 13.772ZM144.632 16.004C143.804 16.076 143.39 16.526 143.39 17.354C143.39 18.182 143.756 18.596 144.488 18.596C145.088 18.596 145.724 18.5 146.396 18.308L146.72 18.2V15.806L144.632 16.004ZM158.471 7.256V20H156.527V19.532C155.651 19.976 154.847 20.198 154.115 20.198C152.939 20.198 152.075 19.844 151.523 19.136C150.983 18.428 150.713 17.24 150.713 15.572C150.713 13.904 151.013 12.692 151.613 11.936C152.225 11.18 153.173 10.802 154.457 10.802C154.889 10.802 155.573 10.88 156.509 11.036V7.256H158.471ZM156.203 18.128L156.509 18.002V12.674C155.789 12.554 155.123 12.494 154.511 12.494C153.299 12.494 152.693 13.502 152.693 15.518C152.693 16.622 152.831 17.39 153.107 17.822C153.395 18.242 153.845 18.452 154.457 18.452C155.069 18.452 155.651 18.344 156.203 18.128ZM165.289 11.972C165.913 11.192 166.945 10.802 168.385 10.802C169.825 10.802 170.851 11.192 171.463 11.972C172.087 12.752 172.399 13.922 172.399 15.482C172.399 17.042 172.099 18.218 171.499 19.01C170.899 19.802 169.861 20.198 168.385 20.198C166.909 20.198 165.871 19.802 165.271 19.01C164.671 18.218 164.371 17.042 164.371 15.482C164.371 13.922 164.677 12.752 165.289 11.972ZM166.765 17.822C167.041 18.302 167.581 18.542 168.385 18.542C169.189 18.542 169.729 18.302 170.005 17.822C170.281 17.342 170.419 16.556 170.419 15.464C170.419 14.372 170.269 13.598 169.969 13.142C169.681 12.686 169.153 12.458 168.385 12.458C167.617 12.458 167.083 12.686 166.783 13.142C166.495 13.598 166.351 14.372 166.351 15.464C166.351 16.556 166.489 17.342 166.765 17.822ZM176.31 20H174.348V11H176.292V11.558C177.168 11.054 177.996 10.802 178.776 10.802C179.976 10.802 180.792 11.144 181.224 11.828C181.668 12.5 181.89 13.616 181.89 15.176V20H179.946V15.23C179.946 14.258 179.838 13.568 179.622 13.16C179.418 12.752 178.992 12.548 178.344 12.548C177.732 12.548 177.144 12.668 176.58 12.908L176.31 13.016V20ZM192.971 12.674H190.487V16.634C190.487 17.366 190.541 17.852 190.649 18.092C190.757 18.332 191.033 18.452 191.477 18.452L192.953 18.398L193.043 19.964C192.239 20.12 191.627 20.198 191.207 20.198C190.187 20.198 189.485 19.964 189.101 19.496C188.729 19.028 188.543 18.146 188.543 16.85V12.674H187.391V11H188.543V8.39H190.487V11H192.971V12.674ZM196.543 20H194.581V7.256H196.543V11.468C197.431 11.024 198.253 10.802 199.009 10.802C200.209 10.802 201.025 11.144 201.457 11.828C201.901 12.5 202.123 13.616 202.123 15.176V20H200.161V15.23C200.161 14.258 200.059 13.568 199.855 13.16C199.651 12.752 199.219 12.548 198.559 12.548C197.983 12.548 197.407 12.644 196.831 12.836L196.543 12.944V20ZM210.815 18.38L211.319 18.326L211.355 19.784C209.987 20.06 208.775 20.198 207.719 20.198C206.387 20.198 205.427 19.832 204.839 19.1C204.263 18.368 203.975 17.198 203.975 15.59C203.975 12.398 205.277 10.802 207.881 10.802C210.401 10.802 211.661 12.176 211.661 14.924L211.535 16.328H205.955C205.967 17.072 206.129 17.618 206.441 17.966C206.753 18.314 207.335 18.488 208.187 18.488C209.039 18.488 209.915 18.452 210.815 18.38ZM209.735 14.816C209.735 13.928 209.591 13.31 209.303 12.962C209.027 12.602 208.553 12.422 207.881 12.422C207.209 12.422 206.717 12.608 206.405 12.98C206.105 13.352 205.949 13.964 205.937 14.816H209.735Z" fill="black"/>
<path d="M79.544 50L84.44 28.24H92.824L97.72 50H93.304L92.44 46.064H84.824L83.96 50H79.544ZM87.864 31.888L85.656 42.224H91.608L89.4 31.888H87.864ZM100.234 56.72V34H104.49V34.864C105.877 34.032 107.093 33.616 108.138 33.616C110.293 33.616 111.882 34.2667 112.906 35.568C113.93 36.848 114.442 39.0347 114.442 42.128C114.442 45.2213 113.877 47.376 112.746 48.592C111.615 49.7867 109.759 50.384 107.178 50.384C106.474 50.384 105.717 50.32 104.906 50.192L104.522 50.128V56.72H100.234ZM107.306 37.456C106.517 37.456 105.717 37.616 104.906 37.936L104.522 38.096V46.48C105.482 46.608 106.261 46.672 106.858 46.672C108.095 46.672 108.938 46.3093 109.386 45.584C109.855 44.8587 110.09 43.6213 110.09 41.872C110.09 38.928 109.162 37.456 107.306 37.456ZM117.64 56.72V34H121.896V34.864C123.283 34.032 124.499 33.616 125.544 33.616C127.699 33.616 129.288 34.2667 130.312 35.568C131.336 36.848 131.848 39.0347 131.848 42.128C131.848 45.2213 131.283 47.376 130.152 48.592C129.022 49.7867 127.166 50.384 124.584 50.384C123.88 50.384 123.123 50.32 122.312 50.192L121.928 50.128V56.72H117.64ZM124.712 37.456C123.923 37.456 123.123 37.616 122.312 37.936L121.928 38.096V46.48C122.888 46.608 123.667 46.672 124.264 46.672C125.502 46.672 126.344 46.3093 126.792 45.584C127.262 44.8587 127.496 43.6213 127.496 41.872C127.496 38.928 126.568 37.456 124.712 37.456ZM149.15 31.696C146.824 31.696 145.662 32.464 145.662 34C145.662 34.6827 145.95 35.2053 146.526 35.568C147.102 35.9307 148.446 36.4533 150.558 37.136C152.691 37.8187 154.184 38.5973 155.038 39.472C155.891 40.3253 156.318 41.648 156.318 43.44C156.318 45.7227 155.624 47.4507 154.238 48.624C152.851 49.7973 151.038 50.384 148.798 50.384C147.134 50.384 145.096 50.128 142.686 49.616L141.534 49.392L141.982 45.968C144.84 46.352 147.027 46.544 148.542 46.544C150.803 46.544 151.934 45.6053 151.934 43.728C151.934 43.0453 151.667 42.512 151.134 42.128C150.622 41.744 149.587 41.328 148.03 40.88C145.555 40.176 143.806 39.344 142.782 38.384C141.779 37.4027 141.278 36.048 141.278 34.32C141.278 32.144 141.939 30.5227 143.262 29.456C144.584 28.3893 146.398 27.856 148.702 27.856C150.28 27.856 152.286 28.0693 154.718 28.496L155.87 28.72L155.518 32.208C152.51 31.8667 150.387 31.696 149.15 31.696ZM168.192 37.648H164.256V44.208C164.256 44.848 164.266 45.3067 164.288 45.584C164.33 45.84 164.448 46.064 164.64 46.256C164.853 46.448 165.173 46.544 165.6 46.544L168.032 46.48L168.224 49.904C166.794 50.224 165.706 50.384 164.96 50.384C163.04 50.384 161.728 49.9573 161.024 49.104C160.32 48.2293 159.968 46.6293 159.968 44.304V37.648H158.08V34H159.968V29.552H164.256V34H168.192V37.648ZM171.848 35.824C172.979 34.352 174.867 33.616 177.512 33.616C180.157 33.616 182.045 34.352 183.176 35.824C184.307 37.2747 184.872 39.3227 184.872 41.968C184.872 47.5787 182.419 50.384 177.512 50.384C172.605 50.384 170.152 47.5787 170.152 41.968C170.152 39.3227 170.717 37.2747 171.848 35.824ZM175.144 45.584C175.592 46.352 176.381 46.736 177.512 46.736C178.643 46.736 179.421 46.352 179.848 45.584C180.296 44.816 180.52 43.6107 180.52 41.968C180.52 40.3253 180.296 39.1307 179.848 38.384C179.421 37.6373 178.643 37.264 177.512 37.264C176.381 37.264 175.592 37.6373 175.144 38.384C174.717 39.1307 174.504 40.3253 174.504 41.968C174.504 43.6107 174.717 44.816 175.144 45.584ZM188.015 50V34H192.271V35.696C194.063 34.6293 195.77 33.936 197.391 33.616V37.936C195.663 38.2987 194.181 38.672 192.943 39.056L192.303 39.28V50H188.015ZM203.442 43.824C203.463 44.8053 203.719 45.52 204.21 45.968C204.722 46.3947 205.447 46.608 206.385 46.608C208.37 46.608 210.14 46.544 211.698 46.416L212.594 46.32L212.658 49.488C210.204 50.0853 207.986 50.384 206.002 50.384C203.591 50.384 201.842 49.744 200.754 48.464C199.666 47.184 199.122 45.104 199.122 42.224C199.122 36.4853 201.479 33.616 206.194 33.616C210.844 33.616 213.17 36.0267 213.17 40.848L212.85 43.824H203.442ZM208.946 40.56C208.946 39.28 208.743 38.3947 208.338 37.904C207.932 37.392 207.218 37.136 206.194 37.136C205.191 37.136 204.476 37.4027 204.05 37.936C203.644 38.448 203.431 39.3227 203.41 40.56H208.946Z" fill="black"/>
<path fill-rule="evenodd" clip-rule="evenodd" d="M36.9626 14.5043C38.6076 12.5186 39.7121 9.75146 39.4105 7C37.0448 7.09596 34.1817 8.57646 32.4878 10.5622C30.9661 12.3208 29.6345 15.1349 29.9948 17.8315C32.6307 18.0372 35.3254 16.492 36.9665 14.5043M42.8806 31.9687C42.9472 39.0814 49.1199 41.449 49.1865 41.4804C49.1375 41.6468 48.2034 44.8526 45.9356 48.1642C43.9773 51.0272 41.9446 53.8805 38.7407 53.9393C35.5937 53.9961 34.5832 52.073 30.9838 52.073C27.3883 52.073 26.2642 53.8805 23.2836 53.9961C20.1933 54.1136 17.8394 50.9 15.8615 48.0486C11.8273 42.2128 8.74297 31.5595 12.8848 24.3685C14.9391 20.7965 18.6169 18.5346 22.608 18.4778C25.6434 18.419 28.5084 20.5203 30.363 20.5203C32.2175 20.5203 35.7014 17.9941 39.3615 18.3642C40.8949 18.4288 45.1954 18.983 47.9586 23.027C47.7353 23.1641 42.8258 26.0232 42.8787 31.9687" fill="black"/>
<defs>
<filter id="filter0_d_142_1774" x="0" y="0" width="231" height="69" filterUnits="userSpaceOnUse" color-interpolation-filters="sRGB">
<feFlood flood-opacity="0" result="BackgroundImageFix"/>
<feColorMatrix in="SourceAlpha" type="matrix" values="0 0 0 0 0 0 0 0 0 0 0 0 0 0 0 0 0 0 127 0" result="hardAlpha"/>
<feOffset dy="4"/>
<feGaussianBlur stdDeviation="2"/>
<feComposite in2="hardAlpha" operator="out"/>
<feColorMatrix type="matrix" values="0 0 0 0 0 0 0 0 0 0 0 0 0 0 0 0 0 0 0.25 0"/>
<feBlend mode="normal" in2="BackgroundImageFix" result="effect1_dropShadow_142_1774"/>
<feBlend mode="normal" in="SourceGraphic" in2="effect1_dropShadow_142_1774" result="shape"/>
</filter>
</defs>
</svg>
