<svg width="142" height="143" viewBox="0 0 142 143" fill="none" xmlns="http://www.w3.org/2000/svg">
<path d="M53.25 103.26L102.95 71.214L53.25 39.1677V103.26ZM71 142.428C61.1783 142.428 51.9483 140.559 43.31 136.82C34.6717 133.081 27.1575 128.007 20.7675 121.598C14.3775 115.189 9.31875 107.652 5.59125 98.9874C1.86375 90.3231 0 81.0652 0 71.214C0 61.3627 1.86375 52.1049 5.59125 43.4405C9.31875 34.7762 14.3775 27.2393 20.7675 20.8301C27.1575 14.4208 34.6717 9.34683 43.31 5.6081C51.9483 1.86937 61.1783 0 71 0C80.8217 0 90.0517 1.86937 98.69 5.6081C107.328 9.34683 114.843 14.4208 121.233 20.8301C127.623 27.2393 132.681 34.7762 136.409 43.4405C140.136 52.1049 142 61.3627 142 71.214C142 81.0652 140.136 90.3231 136.409 98.9874C132.681 107.652 127.623 115.189 121.233 121.598C114.843 128.007 107.328 133.081 98.69 136.82C90.0517 140.559 80.8217 142.428 71 142.428ZM71 128.185C86.8567 128.185 100.287 122.666 111.293 111.628C122.298 100.59 127.8 87.1184 127.8 71.214C127.8 55.3095 122.298 41.8382 111.293 30.8C100.287 19.7619 86.8567 14.2428 71 14.2428C55.1433 14.2428 41.7125 19.7619 30.7075 30.8C19.7025 41.8382 14.2 55.3095 14.2 71.214C14.2 87.1184 19.7025 100.59 30.7075 111.628C41.7125 122.666 55.1433 128.185 71 128.185Z" fill="#492B0B"/>
</svg>
