<svg width="231" height="69" viewBox="0 0 231 69" fill="none" xmlns="http://www.w3.org/2000/svg">
<g filter="url(#filter0_d_142_1775)">
<rect x="4" width="223" height="61" rx="10" fill="#B3C58E"/>
</g>
<path d="M62.444 15.284V13.52H65.954V19.784C65.63 19.868 64.97 19.958 63.974 20.054C62.99 20.15 62.276 20.198 61.832 20.198C59.96 20.198 58.67 19.682 57.962 18.65C57.254 17.618 56.9 16.004 56.9 13.808C56.9 11.6 57.26 9.992 57.98 8.984C58.712 7.976 59.972 7.472 61.76 7.472C62.816 7.472 64.004 7.592 65.324 7.832L65.954 7.958L65.882 9.542C64.43 9.35 63.128 9.254 61.976 9.254C60.824 9.254 60.032 9.578 59.6 10.226C59.18 10.874 58.97 12.074 58.97 13.826C58.97 15.578 59.168 16.79 59.564 17.462C59.972 18.122 60.788 18.452 62.012 18.452C62.888 18.452 63.542 18.398 63.974 18.29V15.284H62.444ZM74.6351 18.38L75.1391 18.326L75.1751 19.784C73.8071 20.06 72.5951 20.198 71.5391 20.198C70.2071 20.198 69.2471 19.832 68.6591 19.1C68.0831 18.368 67.7951 17.198 67.7951 15.59C67.7951 12.398 69.0971 10.802 71.7011 10.802C74.2211 10.802 75.4811 12.176 75.4811 14.924L75.3551 16.328H69.7751C69.7871 17.072 69.9491 17.618 70.2611 17.966C70.5731 18.314 71.1551 18.488 72.0071 18.488C72.8591 18.488 73.7351 18.452 74.6351 18.38ZM73.5551 14.816C73.5551 13.928 73.4111 13.31 73.1231 12.962C72.8471 12.602 72.3731 12.422 71.7011 12.422C71.0291 12.422 70.5371 12.608 70.2251 12.98C69.9251 13.352 69.7691 13.964 69.7571 14.816H73.5551ZM82.2097 12.674H79.7257V16.634C79.7257 17.366 79.7797 17.852 79.8877 18.092C79.9957 18.332 80.2717 18.452 80.7157 18.452L82.1917 18.398L82.2817 19.964C81.4777 20.12 80.8657 20.198 80.4457 20.198C79.4257 20.198 78.7237 19.964 78.3397 19.496C77.9677 19.028 77.7817 18.146 77.7817 16.85V12.674H76.6297V11H77.7817V8.39H79.7257V11H82.2097V12.674ZM87.7739 20V11H89.7359V20H87.7739ZM87.7739 9.47V7.4H89.7359V9.47H87.7739ZM96.9577 12.674H94.4737V16.634C94.4737 17.366 94.5277 17.852 94.6357 18.092C94.7437 18.332 95.0197 18.452 95.4637 18.452L96.9397 18.398L97.0297 19.964C96.2257 20.12 95.6137 20.198 95.1937 20.198C94.1737 20.198 93.4717 19.964 93.0877 19.496C92.7157 19.028 92.5297 18.146 92.5297 16.85V12.674H91.3777V11H92.5297V8.39H94.4737V11H96.9577V12.674ZM103.008 11.972C103.632 11.192 104.664 10.802 106.104 10.802C107.544 10.802 108.57 11.192 109.182 11.972C109.806 12.752 110.118 13.922 110.118 15.482C110.118 17.042 109.818 18.218 109.218 19.01C108.618 19.802 107.58 20.198 106.104 20.198C104.628 20.198 103.59 19.802 102.99 19.01C102.39 18.218 102.09 17.042 102.09 15.482C102.09 13.922 102.396 12.752 103.008 11.972ZM104.484 17.822C104.76 18.302 105.3 18.542 106.104 18.542C106.908 18.542 107.448 18.302 107.724 17.822C108 17.342 108.138 16.556 108.138 15.464C108.138 14.372 107.988 13.598 107.688 13.142C107.4 12.686 106.872 12.458 106.104 12.458C105.336 12.458 104.802 12.686 104.502 13.142C104.214 13.598 104.07 14.372 104.07 15.464C104.07 16.556 104.208 17.342 104.484 17.822ZM114.029 20H112.067V11H114.011V11.558C114.887 11.054 115.715 10.802 116.495 10.802C117.695 10.802 118.511 11.144 118.943 11.828C119.387 12.5 119.609 13.616 119.609 15.176V20H117.665V15.23C117.665 14.258 117.557 13.568 117.341 13.16C117.137 12.752 116.711 12.548 116.063 12.548C115.451 12.548 114.863 12.668 114.299 12.908L114.029 13.016V20Z" fill="black"/>
<path d="M65.424 42.192V38.352H71.76V49.648C68.7093 50.1387 66.2347 50.384 64.336 50.384C60.944 50.384 58.608 49.4773 57.328 47.664C56.0693 45.8507 55.44 42.9707 55.44 39.024C55.44 35.0773 56.1013 32.2293 57.424 30.48C58.7467 28.7307 60.9973 27.856 64.176 27.856C66.16 27.856 68.304 28.08 70.608 28.528L71.76 28.752L71.632 32.176C69.072 31.8987 66.9707 31.76 65.328 31.76C63.7067 31.76 62.5653 31.952 61.904 32.336C61.2427 32.72 60.752 33.4347 60.432 34.48C60.1333 35.504 59.984 37.2747 59.984 39.792C59.984 42.288 60.2933 44.0373 60.912 45.04C61.5307 46.0427 62.8107 46.544 64.752 46.544L67.408 46.416V42.192H65.424ZM76.4105 35.824C77.5412 34.352 79.4292 33.616 82.0745 33.616C84.7198 33.616 86.6078 34.352 87.7385 35.824C88.8692 37.2747 89.4345 39.3227 89.4345 41.968C89.4345 47.5787 86.9812 50.384 82.0745 50.384C77.1678 50.384 74.7145 47.5787 74.7145 41.968C74.7145 39.3227 75.2798 37.2747 76.4105 35.824ZM79.7065 45.584C80.1545 46.352 80.9438 46.736 82.0745 46.736C83.2052 46.736 83.9838 46.352 84.4105 45.584C84.8585 44.816 85.0825 43.6107 85.0825 41.968C85.0825 40.3253 84.8585 39.1307 84.4105 38.384C83.9838 37.6373 83.2052 37.264 82.0745 37.264C80.9438 37.264 80.1545 37.6373 79.7065 38.384C79.2798 39.1307 79.0665 40.3253 79.0665 41.968C79.0665 43.6107 79.2798 44.816 79.7065 45.584ZM93.4418 35.824C94.5724 34.352 96.4604 33.616 99.1058 33.616C101.751 33.616 103.639 34.352 104.77 35.824C105.9 37.2747 106.466 39.3227 106.466 41.968C106.466 47.5787 104.012 50.384 99.1058 50.384C94.1991 50.384 91.7458 47.5787 91.7458 41.968C91.7458 39.3227 92.3111 37.2747 93.4418 35.824ZM96.7378 45.584C97.1858 46.352 97.9751 46.736 99.1058 46.736C100.236 46.736 101.015 46.352 101.442 45.584C101.89 44.816 102.114 43.6107 102.114 41.968C102.114 40.3253 101.89 39.1307 101.442 38.384C101.015 37.6373 100.236 37.264 99.1058 37.264C97.9751 37.264 97.1858 37.6373 96.7378 38.384C96.3111 39.1307 96.0978 40.3253 96.0978 41.968C96.0978 43.6107 96.3111 44.816 96.7378 45.584ZM124.105 51.984C124.105 53.8187 123.401 55.1733 121.993 56.048C120.585 56.9227 118.676 57.36 116.265 57.36C113.876 57.36 112.03 57.04 110.729 56.4C109.449 55.76 108.809 54.5973 108.809 52.912C108.809 51.568 109.577 50.2987 111.113 49.104C110.324 48.5707 109.929 47.76 109.929 46.672C109.929 46.2453 110.249 45.5413 110.889 44.56L111.177 44.112C109.726 43.0667 109.001 41.5307 109.001 39.504C109.001 37.456 109.609 35.9733 110.825 35.056C112.062 34.1387 113.694 33.68 115.721 33.68C116.638 33.68 117.545 33.7867 118.441 34L118.953 34.096L124.105 33.936V37.36L121.705 37.168C122.174 37.8933 122.409 38.6187 122.409 39.344C122.409 41.4773 121.865 42.9493 120.777 43.76C119.689 44.5707 117.982 44.976 115.657 44.976C115.166 44.976 114.729 44.9333 114.345 44.848C114.132 45.4027 114.025 45.8613 114.025 46.224C114.025 46.5653 114.206 46.8 114.569 46.928C114.932 47.056 115.785 47.1307 117.129 47.152C119.817 47.1733 121.652 47.536 122.633 48.24C123.614 48.9227 124.105 50.1707 124.105 51.984ZM113.033 52.464C113.033 53.3813 114.153 53.84 116.393 53.84C118.654 53.84 119.785 53.3067 119.785 52.24C119.785 51.664 119.593 51.2907 119.209 51.12C118.825 50.9707 118.014 50.8853 116.777 50.864L113.897 50.64C113.321 51.216 113.033 51.824 113.033 52.464ZM113.289 39.376C113.289 40.9333 114.1 41.712 115.721 41.712C117.364 41.712 118.185 40.9333 118.185 39.376C118.185 37.7973 117.364 37.008 115.721 37.008C114.1 37.008 113.289 37.7973 113.289 39.376ZM126.895 50V27.6H131.183V50H126.895ZM138.848 43.824C138.869 44.8053 139.125 45.52 139.616 45.968C140.128 46.3947 140.853 46.608 141.792 46.608C143.776 46.608 145.546 46.544 147.104 46.416L148 46.32L148.064 49.488C145.61 50.0853 143.392 50.384 141.408 50.384C138.997 50.384 137.248 49.744 136.16 48.464C135.072 47.184 134.528 45.104 134.528 42.224C134.528 36.4853 136.885 33.616 141.6 33.616C146.25 33.616 148.576 36.0267 148.576 40.848L148.256 43.824H138.848ZM144.352 40.56C144.352 39.28 144.149 38.3947 143.744 37.904C143.338 37.392 142.624 37.136 141.6 37.136C140.597 37.136 139.882 37.4027 139.456 37.936C139.05 38.448 138.837 39.3227 138.816 40.56H144.352ZM158.672 56.72V34H162.928V34.864C164.314 34.032 165.53 33.616 166.576 33.616C168.73 33.616 170.32 34.2667 171.344 35.568C172.368 36.848 172.88 39.0347 172.88 42.128C172.88 45.2213 172.314 47.376 171.184 48.592C170.053 49.7867 168.197 50.384 165.616 50.384C164.912 50.384 164.154 50.32 163.344 50.192L162.96 50.128V56.72H158.672ZM165.744 37.456C164.954 37.456 164.154 37.616 163.344 37.936L162.96 38.096V46.48C163.92 46.608 164.698 46.672 165.296 46.672C166.533 46.672 167.376 46.3093 167.824 45.584C168.293 44.8587 168.528 43.6213 168.528 41.872C168.528 38.928 167.6 37.456 165.744 37.456ZM176.27 50V27.6H180.558V50H176.27ZM196.959 38.992V45.648C197.001 46.16 197.087 46.5227 197.215 46.736C197.343 46.928 197.609 47.0667 198.015 47.152L197.887 50.384C196.799 50.384 195.924 50.3093 195.263 50.16C194.623 50.0107 193.972 49.712 193.311 49.264C191.775 50.0107 190.207 50.384 188.607 50.384C185.3 50.384 183.647 48.6347 183.647 45.136C183.647 43.4293 184.105 42.224 185.023 41.52C185.94 40.7947 187.348 40.368 189.247 40.24L192.671 39.984V38.992C192.671 38.3307 192.521 37.8827 192.223 37.648C191.924 37.392 191.444 37.264 190.783 37.264L184.767 37.52L184.639 34.544C186.921 33.9253 189.087 33.616 191.135 33.616C193.204 33.616 194.687 34.0427 195.583 34.896C196.5 35.7493 196.959 37.1147 196.959 38.992ZM189.759 43.216C188.564 43.3227 187.967 43.9627 187.967 45.136C187.967 46.3093 188.489 46.896 189.535 46.896C190.345 46.896 191.231 46.768 192.191 46.512L192.671 46.384V42.96L189.759 43.216ZM199.356 34H203.58L206.492 46.352H207.228L210.14 34H214.364L208.732 56.72H204.54L206.3 50H203.292L199.356 34Z" fill="black"/>
<g clip-path="url(#clip0_142_1775)">
<path d="M28.3452 29.5927L12.145 46.701C12.3269 47.3508 12.6539 47.9502 13.1008 48.4532C13.5478 48.9561 14.1029 49.3495 14.7237 49.6031C15.3446 49.8567 16.0147 49.9638 16.683 49.9163C17.3512 49.8689 17.9999 49.668 18.5793 49.3291L36.8076 38.8647L28.3452 29.5927Z" fill="#EA4335"/>
<path d="M44.7265 26.6846L36.844 22.1335L27.9712 29.9818L36.8801 38.8402L44.7026 34.3379C45.3955 33.9722 45.976 33.4222 46.381 32.7476C46.786 32.0731 47.0001 31.2996 47.0001 30.5112C47.0001 29.7227 46.786 28.9493 46.381 28.2747C45.976 27.6001 45.3955 27.0502 44.7026 26.6844L44.7265 26.6846Z" fill="#FBBC04"/>
<path d="M12.145 14.2367C12.0471 14.6016 11.9984 14.9781 12 15.3561V45.5814C12.001 45.9593 12.0497 46.3355 12.145 46.701L28.9005 30.0307L12.145 14.2367Z" fill="#4285F4"/>
<path d="M28.466 30.4689L36.8438 22.1338L18.6397 11.6206C17.9548 11.2163 17.1758 11.0021 16.3821 11C14.4124 10.9961 12.6807 12.3139 12.145 14.2246L28.466 30.4689Z" fill="#7B944F"/>
</g>
<defs>
<filter id="filter0_d_142_1775" x="0" y="0" width="231" height="69" filterUnits="userSpaceOnUse" color-interpolation-filters="sRGB">
<feFlood flood-opacity="0" result="BackgroundImageFix"/>
<feColorMatrix in="SourceAlpha" type="matrix" values="0 0 0 0 0 0 0 0 0 0 0 0 0 0 0 0 0 0 127 0" result="hardAlpha"/>
<feOffset dy="4"/>
<feGaussianBlur stdDeviation="2"/>
<feComposite in2="hardAlpha" operator="out"/>
<feColorMatrix type="matrix" values="0 0 0 0 0 0 0 0 0 0 0 0 0 0 0 0 0 0 0.25 0"/>
<feBlend mode="normal" in2="BackgroundImageFix" result="effect1_dropShadow_142_1775"/>
<feBlend mode="normal" in="SourceGraphic" in2="effect1_dropShadow_142_1775" result="shape"/>
</filter>
<clipPath id="clip0_142_1775">
<rect width="35" height="39" fill="white" transform="translate(12 11)"/>
</clipPath>
</defs>
</svg>
