<svg width="39" height="39" viewBox="0 0 39 39" fill="none" xmlns="http://www.w3.org/2000/svg">
<mask id="mask0_132_83" style="mask-type:alpha" maskUnits="userSpaceOnUse" x="0" y="0" width="39" height="39">
<rect width="38.9705" height="38.9705" fill="#D9D9D9"/>
</mask>
<g mask="url(#mask0_132_83)">
<path d="M15.4258 26.7922L26.7922 19.4853L15.4258 12.1783V26.7922ZM19.4853 35.7229C17.239 35.7229 15.1281 35.2967 13.1526 34.4442C11.177 33.5917 9.45848 32.4348 7.99708 30.9734C6.53569 29.512 5.37876 27.7935 4.52628 25.818C3.6738 23.8424 3.24756 21.7315 3.24756 19.4853C3.24756 17.239 3.6738 15.1281 4.52628 13.1526C5.37876 11.177 6.53569 9.45848 7.99708 7.99708C9.45848 6.53569 11.177 5.37876 13.1526 4.52628C15.1281 3.6738 17.239 3.24756 19.4853 3.24756C21.7315 3.24756 23.8424 3.6738 25.818 4.52628C27.7935 5.37876 29.512 6.53569 30.9734 7.99708C32.4348 9.45848 33.5917 11.177 34.4442 13.1526C35.2967 15.1281 35.7229 17.239 35.7229 19.4853C35.7229 21.7315 35.2967 23.8424 34.4442 25.818C33.5917 27.7935 32.4348 29.512 30.9734 30.9734C29.512 32.4348 27.7935 33.5917 25.818 34.4442C23.8424 35.2967 21.7315 35.7229 19.4853 35.7229ZM19.4853 32.4754C23.1117 32.4754 26.1833 31.217 28.7001 28.7001C31.217 26.1833 32.4754 23.1117 32.4754 19.4853C32.4754 15.8588 31.217 12.7872 28.7001 10.2704C26.1833 7.75352 23.1117 6.4951 19.4853 6.4951C15.8588 6.4951 12.7872 7.75352 10.2704 10.2704C7.75352 12.7872 6.4951 15.8588 6.4951 19.4853C6.4951 23.1117 7.75352 26.1833 10.2704 28.7001C12.7872 31.217 15.8588 32.4754 19.4853 32.4754Z" fill="#CC6A28"/>
</g>
</svg>
