<svg width="13" height="13" viewBox="0 0 13 13" fill="none" xmlns="http://www.w3.org/2000/svg">
<path d="M8.17559 9.03618L9.03618 8.17559L6.76177 5.90118V3.07353H5.53235V6.39294L8.17559 9.03618ZM6.14706 12.2941C5.29672 12.2941 4.4976 12.1328 3.74971 11.81C3.00181 11.4873 2.35125 11.0493 1.79801 10.4961C1.24478 9.94287 0.806801 9.2923 0.484081 8.54441C0.16136 7.79652 0 6.9974 0 6.14706C0 5.29672 0.16136 4.4976 0.484081 3.74971C0.806801 3.00181 1.24478 2.35125 1.79801 1.79801C2.35125 1.24478 3.00181 0.806801 3.74971 0.484081C4.4976 0.16136 5.29672 0 6.14706 0C6.9974 0 7.79652 0.16136 8.54441 0.484081C9.2923 0.806801 9.94287 1.24478 10.4961 1.79801C11.0493 2.35125 11.4873 3.00181 11.81 3.74971C12.1328 4.4976 12.2941 5.29672 12.2941 6.14706C12.2941 6.9974 12.1328 7.79652 11.81 8.54441C11.4873 9.2923 11.0493 9.94287 10.4961 10.4961C9.94287 11.0493 9.2923 11.4873 8.54441 11.81C7.79652 12.1328 6.9974 12.2941 6.14706 12.2941ZM6.14706 11.0647C7.50966 11.0647 8.66991 10.5857 9.62783 9.62783C10.5857 8.66991 11.0647 7.50966 11.0647 6.14706C11.0647 4.78446 10.5857 3.6242 9.62783 2.66629C8.66991 1.70837 7.50966 1.22941 6.14706 1.22941C4.78446 1.22941 3.6242 1.70837 2.66629 2.66629C1.70837 3.6242 1.22941 4.78446 1.22941 6.14706C1.22941 7.50966 1.70837 8.66991 2.66629 9.62783C3.6242 10.5857 4.78446 11.0647 6.14706 11.0647Z" fill="#1C1B1F"/>
</svg>
