<svg width="273" height="27" viewBox="0 0 273 27" fill="none" xmlns="http://www.w3.org/2000/svg">
<path d="M20.8477 15.3809H6.39844V10.7754H20.8477V15.3809ZM22.8867 5.04492H4.57031V25.6816H0V2.77734C0 2.46094 0.0585938 2.16211 0.175781 1.88086C0.292969 1.59961 0.451172 1.35352 0.650391 1.14258C0.861328 0.931641 1.10742 0.767578 1.38867 0.650391C1.66992 0.533203 1.97461 0.474609 2.30273 0.474609H22.8867V5.04492ZM31.1836 25.6816H26.6133V0.474609H31.1836V25.6816ZM59.6777 25.6816H38.8301C38.502 25.6816 38.1973 25.623 37.916 25.5059C37.6348 25.3887 37.3887 25.2305 37.1777 25.0312C36.9785 24.8203 36.8203 24.5742 36.7031 24.293C36.5859 24.0117 36.5273 23.707 36.5273 23.3789V0.474609H41.0977V21.1113H59.6777V25.6816ZM92.373 25.6816H87.7676V10.6699L79.6641 24.9258C79.4648 25.2891 79.1836 25.5645 78.8203 25.752C78.4688 25.9395 78.0879 26.0332 77.6777 26.0332C77.2793 26.0332 76.9043 25.9395 76.5527 25.752C76.2129 25.5645 75.9434 25.2891 75.7441 24.9258L67.6055 10.6699V25.6816H63.0352V2.42578C63.0352 1.89844 63.1875 1.42969 63.4922 1.01953C63.8086 0.609375 64.2188 0.333984 64.7227 0.193359C64.9688 0.134766 65.2148 0.117188 65.4609 0.140625C65.707 0.152344 65.9414 0.205078 66.1641 0.298828C66.3984 0.380859 66.6094 0.503906 66.7969 0.667969C66.9844 0.820313 67.1426 1.00781 67.2715 1.23047L77.6777 19.3184L88.084 1.23047C88.3535 0.785156 88.7227 0.46875 89.1914 0.28125C89.6719 0.09375 90.1699 0.0644531 90.6855 0.193359C91.1777 0.333984 91.582 0.609375 91.8984 1.01953C92.2148 1.42969 92.373 1.89844 92.373 2.42578V25.6816ZM121.922 18.2637C121.922 19.166 121.805 19.9805 121.57 20.707C121.348 21.4219 121.049 22.0547 120.674 22.6055C120.299 23.1562 119.859 23.625 119.355 24.0117C118.852 24.3984 118.33 24.7148 117.791 24.9609C117.252 25.207 116.701 25.3887 116.139 25.5059C115.588 25.623 115.066 25.6816 114.574 25.6816H96.9434V21.1113H114.574C115.453 21.1113 116.133 20.8535 116.613 20.3379C117.105 19.8223 117.352 19.1309 117.352 18.2637C117.352 17.8418 117.287 17.4551 117.158 17.1035C117.029 16.752 116.842 16.4473 116.596 16.1895C116.361 15.9316 116.068 15.7324 115.717 15.5918C115.377 15.4512 114.996 15.3809 114.574 15.3809H104.062C103.324 15.3809 102.527 15.252 101.672 14.9941C100.816 14.7246 100.02 14.2969 99.2812 13.7109C98.5547 13.125 97.9453 12.3574 97.4531 11.4082C96.9727 10.459 96.7324 9.29883 96.7324 7.92773C96.7324 6.55664 96.9727 5.40234 97.4531 4.46484C97.9453 3.51562 98.5547 2.74805 99.2812 2.16211C100.02 1.56445 100.816 1.13672 101.672 0.878906C102.527 0.609375 103.324 0.474609 104.062 0.474609H119.619V5.04492H104.062C103.195 5.04492 102.516 5.30859 102.023 5.83594C101.543 6.36328 101.303 7.06055 101.303 7.92773C101.303 8.80664 101.543 9.50391 102.023 10.0195C102.516 10.5234 103.195 10.7754 104.062 10.7754H114.574H114.609C115.102 10.7871 115.623 10.8574 116.174 10.9863C116.725 11.1035 117.27 11.291 117.809 11.5488C118.359 11.8066 118.881 12.1348 119.373 12.5332C119.865 12.9199 120.299 13.3887 120.674 13.9395C121.061 14.4902 121.365 15.123 121.588 15.8379C121.811 16.5527 121.922 17.3613 121.922 18.2637ZM148.219 5.04492H138.146V25.6816H133.576V5.04492H123.486V0.474609H148.219V5.04492ZM176.783 8.94727C176.783 9.99023 176.654 10.9219 176.396 11.7422C176.139 12.5625 175.787 13.2891 175.342 13.9219C174.908 14.543 174.404 15.0762 173.83 15.5215C173.256 15.9668 172.652 16.3359 172.02 16.6289C171.398 16.9102 170.766 17.1152 170.121 17.2441C169.488 17.373 168.891 17.4375 168.328 17.4375L177.873 25.6816H170.807L161.279 17.4375H157.992V12.8672H168.328C168.902 12.8203 169.424 12.7031 169.893 12.5156C170.373 12.3164 170.783 12.0527 171.123 11.7246C171.475 11.3965 171.744 11.0039 171.932 10.5469C172.119 10.0781 172.213 9.54492 172.213 8.94727V6.06445C172.213 5.80664 172.178 5.61328 172.107 5.48438C172.049 5.34375 171.967 5.24414 171.861 5.18555C171.768 5.11523 171.662 5.07422 171.545 5.0625C171.439 5.05078 171.34 5.04492 171.246 5.04492H156.164V25.6816H151.594V2.77734C151.594 2.46094 151.652 2.16211 151.77 1.88086C151.887 1.59961 152.045 1.35352 152.244 1.14258C152.455 0.931641 152.701 0.767578 152.982 0.650391C153.264 0.533203 153.568 0.474609 153.896 0.474609H171.246C172.266 0.474609 173.127 0.662109 173.83 1.03711C174.533 1.40039 175.102 1.86328 175.535 2.42578C175.98 2.97656 176.297 3.57422 176.484 4.21875C176.684 4.86328 176.783 5.4668 176.783 6.0293V8.94727ZM185.977 25.6816H181.406V0.474609H185.977V25.6816ZM216.475 20.1445C216.475 20.707 216.375 21.3105 216.176 21.9551C215.988 22.5996 215.672 23.1973 215.227 23.748C214.793 24.2988 214.225 24.7617 213.521 25.1367C212.818 25.5 211.957 25.6816 210.938 25.6816H193.588C193.26 25.6816 192.955 25.623 192.674 25.5059C192.393 25.3887 192.146 25.2305 191.936 25.0312C191.736 24.8203 191.578 24.5742 191.461 24.293C191.344 24.0117 191.285 23.707 191.285 23.3789V2.77734C191.285 2.46094 191.344 2.16211 191.461 1.88086C191.578 1.59961 191.736 1.35352 191.936 1.14258C192.146 0.931641 192.393 0.767578 192.674 0.650391C192.955 0.533203 193.26 0.474609 193.588 0.474609H208.881C209.443 0.474609 210.047 0.574219 210.691 0.773438C211.336 0.972656 211.934 1.29492 212.484 1.74023C213.047 2.17383 213.51 2.74219 213.873 3.44531C214.248 4.14844 214.436 5.00977 214.436 6.0293V6.89062C214.436 7.69922 214.301 8.57227 214.031 9.50977C213.762 10.4355 213.328 11.3145 212.73 12.1465C213.246 12.4629 213.727 12.8438 214.172 13.2891C214.629 13.7344 215.027 14.25 215.367 14.8359C215.707 15.4219 215.977 16.084 216.176 16.8223C216.375 17.5605 216.475 18.375 216.475 19.2656V20.1445ZM211.904 19.2656C211.904 18.668 211.811 18.1348 211.623 17.666C211.436 17.1855 211.172 16.7754 210.832 16.4355C210.492 16.0957 210.082 15.8379 209.602 15.6621C209.121 15.4746 208.582 15.3809 207.984 15.3809H197.684V10.7754H205.928C206.525 10.7754 207.064 10.6875 207.545 10.5117C208.025 10.3242 208.436 10.0605 208.775 9.7207C209.115 9.38086 209.373 8.97656 209.549 8.50781C209.736 8.02734 209.83 7.48828 209.83 6.89062V6.0293C209.83 5.37305 209.514 5.04492 208.881 5.04492H195.855V21.1113H210.938C211.02 21.1113 211.119 21.1055 211.236 21.0938C211.354 21.082 211.459 21.0469 211.553 20.9883C211.646 20.9297 211.729 20.8301 211.799 20.6895C211.869 20.5488 211.904 20.3555 211.904 20.1094V19.2656ZM241.189 15.3809H226.758V10.7754H241.189V15.3809ZM243.246 25.6816H226.758C226.125 25.6816 225.434 25.5703 224.684 25.3477C223.934 25.125 223.236 24.7617 222.592 24.2578C221.959 23.7422 221.426 23.0801 220.992 22.2715C220.57 21.4512 220.359 20.4492 220.359 19.2656V2.77734C220.359 2.46094 220.418 2.16211 220.535 1.88086C220.652 1.59961 220.811 1.35352 221.01 1.14258C221.221 0.931641 221.467 0.767578 221.748 0.650391C222.029 0.533203 222.334 0.474609 222.662 0.474609H243.246V5.04492H224.93V19.2656C224.93 19.8633 225.088 20.3203 225.404 20.6367C225.721 20.9531 226.184 21.1113 226.793 21.1113H243.246V25.6816ZM272.865 23.7305C272.865 24.0586 272.801 24.3633 272.672 24.6445C272.555 24.9258 272.391 25.1719 272.18 25.3828C271.98 25.582 271.74 25.7402 271.459 25.8574C271.178 25.9746 270.879 26.0332 270.562 26.0332C270.281 26.0332 269.994 25.9805 269.701 25.875C269.42 25.7695 269.168 25.5996 268.945 25.3652L252.246 7.92773V25.6816H247.676V2.42578C247.676 1.95703 247.805 1.53516 248.062 1.16016C248.332 0.773438 248.672 0.486328 249.082 0.298828C249.516 0.123047 249.961 0.0820313 250.418 0.175781C250.875 0.257813 251.268 0.46875 251.596 0.808594L268.295 18.2285V0.474609H272.865V23.7305Z" fill="black"/>
</svg>
